<mxfile host="app.diagrams.net" modified="2024-04-14T19:49:29.237Z" agent="Mozilla/5.0 (Windows NT 10.0; Win64; x64) AppleWebKit/537.36 (KHTML, like Gecko) Chrome/123.0.0.0 Safari/537.36" etag="PeVVFWG9uYIbHFvGaab9" version="24.2.5" type="device">
  <diagram name="Sida-1" id="bEBPva5spJVw2tTfgXkj">
    <mxGraphModel dx="1648" dy="866" grid="1" gridSize="10" guides="1" tooltips="1" connect="1" arrows="1" fold="1" page="1" pageScale="1" pageWidth="827" pageHeight="1169" background="#FFFFFF" math="0" shadow="0">
      <root>
        <mxCell id="0" />
        <mxCell id="1" parent="0" />
        <mxCell id="pUumsyVF_A9LQ_3sp1Aj-2" value="Spel startar" style="strokeWidth=2;html=1;shape=mxgraph.flowchart.start_2;whiteSpace=wrap;fontSize=14;" vertex="1" parent="1">
          <mxGeometry x="364" y="20" width="100" height="100" as="geometry" />
        </mxCell>
        <mxCell id="pUumsyVF_A9LQ_3sp1Aj-3" value="Användare tilldelas kort" style="rounded=0;whiteSpace=wrap;html=1;fontSize=14;" vertex="1" parent="1">
          <mxGeometry x="354" y="200" width="120" height="60" as="geometry" />
        </mxCell>
        <mxCell id="pUumsyVF_A9LQ_3sp1Aj-4" value="Mer poäng än 21?" style="strokeWidth=2;html=1;shape=mxgraph.flowchart.decision;whiteSpace=wrap;" vertex="1" parent="1">
          <mxGeometry x="337" y="320" width="154" height="80" as="geometry" />
        </mxCell>
        <mxCell id="pUumsyVF_A9LQ_3sp1Aj-5" value="Spelare fortsätter?" style="strokeWidth=2;html=1;shape=mxgraph.flowchart.decision;whiteSpace=wrap;" vertex="1" parent="1">
          <mxGeometry x="570" y="320" width="154" height="80" as="geometry" />
        </mxCell>
        <mxCell id="pUumsyVF_A9LQ_3sp1Aj-6" value="Spelare vinner" style="rounded=1;whiteSpace=wrap;html=1;" vertex="1" parent="1">
          <mxGeometry x="315" y="920" width="120" height="60" as="geometry" />
        </mxCell>
        <mxCell id="pUumsyVF_A9LQ_3sp1Aj-7" value="Maskin vinner" style="rounded=1;whiteSpace=wrap;html=1;" vertex="1" parent="1">
          <mxGeometry x="40" y="400" width="120" height="60" as="geometry" />
        </mxCell>
        <mxCell id="pUumsyVF_A9LQ_3sp1Aj-8" value="Maskin tilldelas kort" style="rounded=0;whiteSpace=wrap;html=1;fontSize=14;" vertex="1" parent="1">
          <mxGeometry x="587" y="500" width="120" height="60" as="geometry" />
        </mxCell>
        <mxCell id="pUumsyVF_A9LQ_3sp1Aj-10" value="Mer poäng än 16?" style="strokeWidth=2;html=1;shape=mxgraph.flowchart.decision;whiteSpace=wrap;" vertex="1" parent="1">
          <mxGeometry x="570" y="620" width="154" height="80" as="geometry" />
        </mxCell>
        <mxCell id="pUumsyVF_A9LQ_3sp1Aj-30" style="edgeStyle=orthogonalEdgeStyle;rounded=0;orthogonalLoop=1;jettySize=auto;html=1;exitX=0;exitY=0.5;exitDx=0;exitDy=0;exitPerimeter=0;entryX=0.5;entryY=1;entryDx=0;entryDy=0;" edge="1" parent="1" source="pUumsyVF_A9LQ_3sp1Aj-11" target="pUumsyVF_A9LQ_3sp1Aj-7">
          <mxGeometry relative="1" as="geometry">
            <mxPoint x="100" y="470" as="targetPoint" />
          </mxGeometry>
        </mxCell>
        <mxCell id="pUumsyVF_A9LQ_3sp1Aj-11" value="Spelare har mer poäng än maskin?" style="strokeWidth=2;html=1;shape=mxgraph.flowchart.decision;whiteSpace=wrap;" vertex="1" parent="1">
          <mxGeometry x="270" y="720" width="210" height="110" as="geometry" />
        </mxCell>
        <mxCell id="pUumsyVF_A9LQ_3sp1Aj-12" value="Mer poäng än 21?" style="strokeWidth=2;html=1;shape=mxgraph.flowchart.decision;whiteSpace=wrap;" vertex="1" parent="1">
          <mxGeometry x="570" y="735" width="154" height="80" as="geometry" />
        </mxCell>
        <mxCell id="pUumsyVF_A9LQ_3sp1Aj-13" value="" style="endArrow=classic;html=1;rounded=0;exitX=0.5;exitY=1;exitDx=0;exitDy=0;exitPerimeter=0;entryX=0.5;entryY=0;entryDx=0;entryDy=0;" edge="1" parent="1" source="pUumsyVF_A9LQ_3sp1Aj-2" target="pUumsyVF_A9LQ_3sp1Aj-3">
          <mxGeometry width="50" height="50" relative="1" as="geometry">
            <mxPoint x="390" y="370" as="sourcePoint" />
            <mxPoint x="440" y="320" as="targetPoint" />
          </mxGeometry>
        </mxCell>
        <mxCell id="pUumsyVF_A9LQ_3sp1Aj-14" value="" style="endArrow=classic;html=1;rounded=0;exitX=0.5;exitY=1;exitDx=0;exitDy=0;exitPerimeter=0;" edge="1" parent="1">
          <mxGeometry width="50" height="50" relative="1" as="geometry">
            <mxPoint x="414" y="260" as="sourcePoint" />
            <mxPoint x="414" y="320" as="targetPoint" />
          </mxGeometry>
        </mxCell>
        <mxCell id="pUumsyVF_A9LQ_3sp1Aj-15" value="" style="endArrow=classic;html=1;rounded=0;exitX=0;exitY=0.5;exitDx=0;exitDy=0;exitPerimeter=0;entryX=0.5;entryY=0;entryDx=0;entryDy=0;" edge="1" parent="1" source="pUumsyVF_A9LQ_3sp1Aj-4" target="pUumsyVF_A9LQ_3sp1Aj-7">
          <mxGeometry width="50" height="50" relative="1" as="geometry">
            <mxPoint x="390" y="570" as="sourcePoint" />
            <mxPoint x="440" y="520" as="targetPoint" />
            <Array as="points">
              <mxPoint x="100" y="360" />
            </Array>
          </mxGeometry>
        </mxCell>
        <mxCell id="pUumsyVF_A9LQ_3sp1Aj-16" value="Ja" style="text;html=1;align=center;verticalAlign=middle;resizable=0;points=[];autosize=1;strokeColor=none;fillColor=none;" vertex="1" parent="1">
          <mxGeometry x="210" y="338" width="40" height="30" as="geometry" />
        </mxCell>
        <mxCell id="pUumsyVF_A9LQ_3sp1Aj-17" value="" style="endArrow=classic;html=1;rounded=0;entryX=0;entryY=0.5;entryDx=0;entryDy=0;entryPerimeter=0;exitX=1;exitY=0.5;exitDx=0;exitDy=0;exitPerimeter=0;" edge="1" parent="1" source="pUumsyVF_A9LQ_3sp1Aj-4" target="pUumsyVF_A9LQ_3sp1Aj-5">
          <mxGeometry width="50" height="50" relative="1" as="geometry">
            <mxPoint x="390" y="470" as="sourcePoint" />
            <mxPoint x="440" y="420" as="targetPoint" />
          </mxGeometry>
        </mxCell>
        <mxCell id="pUumsyVF_A9LQ_3sp1Aj-18" value="Nej" style="edgeLabel;html=1;align=center;verticalAlign=middle;resizable=0;points=[];" vertex="1" connectable="0" parent="pUumsyVF_A9LQ_3sp1Aj-17">
          <mxGeometry x="-0.1306" y="-3" relative="1" as="geometry">
            <mxPoint x="-2" y="-10" as="offset" />
          </mxGeometry>
        </mxCell>
        <mxCell id="pUumsyVF_A9LQ_3sp1Aj-20" value="" style="endArrow=classic;html=1;rounded=0;entryX=1;entryY=0.5;entryDx=0;entryDy=0;exitX=0.5;exitY=0;exitDx=0;exitDy=0;exitPerimeter=0;" edge="1" parent="1" source="pUumsyVF_A9LQ_3sp1Aj-5" target="pUumsyVF_A9LQ_3sp1Aj-3">
          <mxGeometry width="50" height="50" relative="1" as="geometry">
            <mxPoint x="640" y="230" as="sourcePoint" />
            <mxPoint x="440" y="420" as="targetPoint" />
            <Array as="points">
              <mxPoint x="647" y="230" />
            </Array>
          </mxGeometry>
        </mxCell>
        <mxCell id="pUumsyVF_A9LQ_3sp1Aj-21" value="Ja" style="edgeLabel;html=1;align=center;verticalAlign=middle;resizable=0;points=[];" vertex="1" connectable="0" parent="pUumsyVF_A9LQ_3sp1Aj-20">
          <mxGeometry x="0.0544" relative="1" as="geometry">
            <mxPoint x="2" y="-10" as="offset" />
          </mxGeometry>
        </mxCell>
        <mxCell id="pUumsyVF_A9LQ_3sp1Aj-23" value="" style="endArrow=classic;html=1;rounded=0;entryX=0.5;entryY=0;entryDx=0;entryDy=0;exitX=0.5;exitY=1;exitDx=0;exitDy=0;exitPerimeter=0;" edge="1" parent="1" source="pUumsyVF_A9LQ_3sp1Aj-5" target="pUumsyVF_A9LQ_3sp1Aj-8">
          <mxGeometry width="50" height="50" relative="1" as="geometry">
            <mxPoint x="390" y="470" as="sourcePoint" />
            <mxPoint x="440" y="420" as="targetPoint" />
          </mxGeometry>
        </mxCell>
        <mxCell id="pUumsyVF_A9LQ_3sp1Aj-40" value="Nej" style="edgeLabel;html=1;align=center;verticalAlign=middle;resizable=0;points=[];" vertex="1" connectable="0" parent="pUumsyVF_A9LQ_3sp1Aj-23">
          <mxGeometry x="-0.1066" y="-1" relative="1" as="geometry">
            <mxPoint as="offset" />
          </mxGeometry>
        </mxCell>
        <mxCell id="pUumsyVF_A9LQ_3sp1Aj-24" value="" style="endArrow=classic;html=1;rounded=0;entryX=0.5;entryY=0;entryDx=0;entryDy=0;entryPerimeter=0;exitX=0.5;exitY=1;exitDx=0;exitDy=0;" edge="1" parent="1" source="pUumsyVF_A9LQ_3sp1Aj-8" target="pUumsyVF_A9LQ_3sp1Aj-10">
          <mxGeometry width="50" height="50" relative="1" as="geometry">
            <mxPoint x="390" y="570" as="sourcePoint" />
            <mxPoint x="440" y="520" as="targetPoint" />
          </mxGeometry>
        </mxCell>
        <mxCell id="pUumsyVF_A9LQ_3sp1Aj-25" value="Nej" style="endArrow=classic;html=1;rounded=0;exitX=0;exitY=0.5;exitDx=0;exitDy=0;exitPerimeter=0;entryX=0;entryY=0.5;entryDx=0;entryDy=0;" edge="1" parent="1" source="pUumsyVF_A9LQ_3sp1Aj-10" target="pUumsyVF_A9LQ_3sp1Aj-8">
          <mxGeometry width="50" height="50" relative="1" as="geometry">
            <mxPoint x="657" y="570" as="sourcePoint" />
            <mxPoint x="440" y="660" as="targetPoint" />
            <Array as="points">
              <mxPoint x="440" y="660" />
              <mxPoint x="440" y="530" />
            </Array>
          </mxGeometry>
        </mxCell>
        <mxCell id="pUumsyVF_A9LQ_3sp1Aj-27" value="" style="endArrow=classic;html=1;rounded=0;entryX=0.5;entryY=0;entryDx=0;entryDy=0;entryPerimeter=0;exitX=0.5;exitY=1;exitDx=0;exitDy=0;exitPerimeter=0;" edge="1" parent="1" source="pUumsyVF_A9LQ_3sp1Aj-10" target="pUumsyVF_A9LQ_3sp1Aj-12">
          <mxGeometry width="50" height="50" relative="1" as="geometry">
            <mxPoint x="390" y="570" as="sourcePoint" />
            <mxPoint x="440" y="520" as="targetPoint" />
          </mxGeometry>
        </mxCell>
        <mxCell id="pUumsyVF_A9LQ_3sp1Aj-28" value="" style="endArrow=classic;html=1;rounded=0;entryX=1;entryY=0.5;entryDx=0;entryDy=0;exitX=0.5;exitY=1;exitDx=0;exitDy=0;exitPerimeter=0;" edge="1" parent="1" source="pUumsyVF_A9LQ_3sp1Aj-12" target="pUumsyVF_A9LQ_3sp1Aj-6">
          <mxGeometry width="50" height="50" relative="1" as="geometry">
            <mxPoint x="390" y="570" as="sourcePoint" />
            <mxPoint x="440" y="520" as="targetPoint" />
            <Array as="points">
              <mxPoint x="647" y="950" />
            </Array>
          </mxGeometry>
        </mxCell>
        <mxCell id="pUumsyVF_A9LQ_3sp1Aj-29" value="Ja" style="edgeLabel;html=1;align=center;verticalAlign=middle;resizable=0;points=[];" vertex="1" connectable="0" parent="pUumsyVF_A9LQ_3sp1Aj-28">
          <mxGeometry x="-0.7008" relative="1" as="geometry">
            <mxPoint as="offset" />
          </mxGeometry>
        </mxCell>
        <mxCell id="pUumsyVF_A9LQ_3sp1Aj-32" style="edgeStyle=orthogonalEdgeStyle;rounded=0;orthogonalLoop=1;jettySize=auto;html=1;exitX=0;exitY=0.5;exitDx=0;exitDy=0;exitPerimeter=0;entryX=1;entryY=0.5;entryDx=0;entryDy=0;entryPerimeter=0;" edge="1" parent="1" source="pUumsyVF_A9LQ_3sp1Aj-12" target="pUumsyVF_A9LQ_3sp1Aj-11">
          <mxGeometry relative="1" as="geometry" />
        </mxCell>
        <mxCell id="pUumsyVF_A9LQ_3sp1Aj-33" value="Nej" style="edgeLabel;html=1;align=center;verticalAlign=middle;resizable=0;points=[];" vertex="1" connectable="0" parent="pUumsyVF_A9LQ_3sp1Aj-32">
          <mxGeometry x="-0.2742" y="-3" relative="1" as="geometry">
            <mxPoint x="-17" y="-12" as="offset" />
          </mxGeometry>
        </mxCell>
        <mxCell id="pUumsyVF_A9LQ_3sp1Aj-35" value="Nej" style="text;html=1;align=center;verticalAlign=middle;resizable=0;points=[];autosize=1;strokeColor=none;fillColor=none;" vertex="1" parent="1">
          <mxGeometry x="100" y="580" width="40" height="30" as="geometry" />
        </mxCell>
        <mxCell id="pUumsyVF_A9LQ_3sp1Aj-36" value="Ja" style="text;html=1;align=center;verticalAlign=middle;resizable=0;points=[];autosize=1;strokeColor=none;fillColor=none;" vertex="1" parent="1">
          <mxGeometry x="640" y="698" width="40" height="30" as="geometry" />
        </mxCell>
        <mxCell id="pUumsyVF_A9LQ_3sp1Aj-38" value="" style="endArrow=classic;html=1;rounded=0;entryX=0.5;entryY=0;entryDx=0;entryDy=0;exitX=0.5;exitY=1;exitDx=0;exitDy=0;exitPerimeter=0;" edge="1" parent="1" source="pUumsyVF_A9LQ_3sp1Aj-11" target="pUumsyVF_A9LQ_3sp1Aj-6">
          <mxGeometry width="50" height="50" relative="1" as="geometry">
            <mxPoint x="390" y="690" as="sourcePoint" />
            <mxPoint x="440" y="640" as="targetPoint" />
          </mxGeometry>
        </mxCell>
        <mxCell id="pUumsyVF_A9LQ_3sp1Aj-39" value="Ja" style="edgeLabel;html=1;align=center;verticalAlign=middle;resizable=0;points=[];" vertex="1" connectable="0" parent="pUumsyVF_A9LQ_3sp1Aj-38">
          <mxGeometry x="-0.2517" y="-2" relative="1" as="geometry">
            <mxPoint as="offset" />
          </mxGeometry>
        </mxCell>
      </root>
    </mxGraphModel>
  </diagram>
</mxfile>
